<?xml version="1.0" encoding="utf-8"?>
<!-- Generator: Adobe Illustrator 26.0.3, SVG Export Plug-In . SVG Version: 6.00 Build 0)  -->
<svg version="1.1" id="Layer_1" xmlns="http://www.w3.org/2000/svg" xmlns:xlink="http://www.w3.org/1999/xlink" x="0px" y="0px"
	 viewBox="0 0 1842.5 453.5" style="enable-background:new 0 0 1842.5 453.5;" xml:space="preserve">
<style type="text/css">
	.st0{fill:#FFFFFF;}
	.st1{fill:#D32A59;}
	.st2{fill:#5A1245;}
</style>
<g>
	<g>
		<g>
			<path class="st0" d="M149.7,205.2c-46.9,0-85,38.1-85,85c0,47,38.1,85,85,85c47,0,85-38.1,85-85
				C234.7,243.3,196.6,205.2,149.7,205.2z"/>
			<path class="st1" d="M188.5,243.7l-21.2-4.6l-15.1,17.2v22.5l28,25.3v18.3l11.5,11.5l-0.7,15.6c-0.1,1.8-1.6,3.2-3.4,3.2
				c-0.1,0-0.1,0-0.2,0c-1.9-0.1-3.3-1.7-3.2-3.5l0.6-12.7l-11.4-11.4v-18.1l-28-25.3v-28l19.4-22l28.1,6.1l31.4,58.4l-42.4-8.5
				c-1.8-0.4-3-2.1-2.6-4c0.4-1.8,2.1-3,4-2.6l28.4,5.7L188.5,243.7z M175.2,339.9l-6.7,12.9h-11.8c-1.9,0-3.4-1.5-3.4-3.4
				c0-1.9,1.5-3.4,3.4-3.4h7.7l4.8-9.3c0.9-1.7,2.9-2.3,4.5-1.4C175.4,336.2,176,338.2,175.2,339.9 M145.2,330.6L134.4,351
				c-0.6,1.1-1.8,1.8-3,1.8c-0.5,0-1.1-0.1-1.6-0.4c-1.6-0.9-2.3-2.9-1.4-4.6l12.7-24h14.2c1.9,0,3.4,1.5,3.4,3.4
				c0,1.9-1.5,3.4-3.4,3.4H145.2z M108.1,352.8c-1.9,0-3.4-1.5-3.4-3.4c0-1.9,1.5-3.4,3.4-3.4h5.2l12.3-27.7l-12.3-10.7
				c-1.4-1.2-1.6-3.3-0.3-4.8c1.2-1.4,3.3-1.6,4.8-0.3l16,13.9l-16,36.3H108.1z M103.3,291.3c1.2-1.5,3.3-1.7,4.7-0.5
				c1.4,1.2,1.7,3.3,0.5,4.7l-9.4,11.6l11.3,10.6c1.4,1.3,1.4,3.4,0.2,4.8c-0.7,0.7-1.6,1.1-2.5,1.1c-0.8,0-1.7-0.3-2.3-0.9
				l-15.9-14.9L103.3,291.3z M102.7,227.7h32.8l-7,10.1l3.9,6.4v29.3c0,1.9-1.5,3.4-3.4,3.4c-1.9,0-3.4-1.5-3.4-3.4v-27.4l-5.2-8.5
				l2.2-3.1h-17.1L92,248l2.5,4.3l11.9-1.2c1.8-0.2,3.5,1.2,3.7,3c0.2,1.9-1.2,3.5-3,3.7l-16.2,1.7l-7.4-12.5L102.7,227.7z
				 M149.7,192.9c-53.8,0-97.4,43.6-97.4,97.4c0,53.8,43.6,97.4,97.4,97.4c53.8,0,97.4-43.6,97.4-97.4
				C247,236.5,203.5,192.9,149.7,192.9"/>
			<polygon class="st2" points="667.1,338.3 549.6,194 521.5,194 521.5,388.4 551.8,388.4 551.8,244.5 669.2,388.6 697.2,388.6 
				697.2,194.2 667.1,194.2 			"/>
			<path class="st2" d="M929.8,283.6H842V309h56.8c-4.4,33.8-27.6,54.3-63.4,54.3c-38.4,0-69.2-28.4-69.2-72.2
				c0-42.5,30-71.6,69.7-71.6c22.1,0,40.8,9.3,53.4,23.7l21.7-21c-17.4-19.5-43.6-31.2-74.4-31.2c-58.4,0-101.6,41.5-101.6,100
				c0,62.1,47.5,100.2,100.5,100.2c54.9,0,94.6-41.9,94.8-99C930.3,289.3,930.1,286.6,929.8,283.6"/>
			<path class="st2" d="M345,328.6l44.4-106.2l44.4,106.2H345z M371.8,194l-82.9,194.4H320l13.5-32.4h111.7l13.5,32.4H491L408.1,194
				H371.8z"/>
		</g>
		<rect x="993.5" y="191.2" class="st2" width="7" height="211.5"/>
		<g>
			<path class="st2" d="M1120.7,242.1c0,13.6-10.3,23.8-24.2,23.8c-13.8,0-24.1-10.2-24.1-23.8c0-13.6,10.3-23.8,24.1-23.8
				C1110.4,218.3,1120.7,228.5,1120.7,242.1z M1080.5,242.1c0,9.6,6.9,16.4,16.1,16.4c9.1,0,16.1-6.9,16.1-16.4s-7-16.4-16.1-16.4
				C1087.4,225.7,1080.5,232.5,1080.5,242.1z"/>
			<path class="st2" d="M1169.4,225.4v-29.7h7.9v69.2h-7.9v-6.1c-3.6,4.3-8.9,7.1-16.1,7.1c-12.8,0-22.8-10-22.8-23.8
				c0-13.8,10-23.8,22.8-23.8C1160.5,218.3,1165.8,221.1,1169.4,225.4z M1138.5,242.1c0,9.1,6.3,16.4,15.7,16.4
				c9.2,0,15.7-7.1,15.7-16.4c0-9.3-6.4-16.4-15.7-16.4C1144.7,225.7,1138.5,233,1138.5,242.1z"/>
			<path class="st2" d="M1240.7,242.1c0,13.8-10,23.8-22.8,23.8c-7.2,0-12.5-2.8-16.1-7.1v25.3h-7.8v-64.9h7.8v6.1
				c3.6-4.3,8.9-7.1,16.1-7.1C1230.6,218.3,1240.7,228.3,1240.7,242.1z M1201.3,242.1c0,9.4,6.4,16.4,15.7,16.4
				c9.5,0,15.7-7.4,15.7-16.4s-6.3-16.4-15.7-16.4C1207.7,225.7,1201.3,232.7,1201.3,242.1z"/>
			<path class="st2" d="M1298.7,242.1c0,13.6-10.3,23.8-24.2,23.8s-24.1-10.2-24.1-23.8c0-13.6,10.3-23.8,24.1-23.8
				S1298.7,228.5,1298.7,242.1z M1258.4,242.1c0,9.6,6.9,16.4,16.1,16.4c9.1,0,16.1-6.9,16.1-16.4s-7-16.4-16.1-16.4
				C1265.4,225.7,1258.4,232.5,1258.4,242.1z"/>
			<path class="st2" d="M1362,256.7l13-37.4h8.2l-16.4,45.7h-9.4l-13.1-37.2l-13,37.2h-9.2l-16.4-45.7h8.4l12.9,37.3l13-37.3h8.9
				L1362,256.7z"/>
			<path class="st2" d="M1403.1,203.2c0,3.1-2.5,5.5-5.6,5.5c-3.1,0-5.5-2.4-5.5-5.5c0-3.2,2.4-5.6,5.5-5.6
				C1400.6,197.6,1403.1,200,1403.1,203.2z M1401.4,264.9h-7.8v-45.7h7.8V264.9z"/>
			<path class="st2" d="M1458.8,241.9c0,1-0.1,2.1-0.1,2.9h-35.9c1.1,9.5,7.7,14.1,15.5,14.1c5.3,0,10.2-2.1,14.1-5.4l4.2,5.4
				c-5.7,5.3-12,6.9-18.7,6.9c-13.6,0-23.2-9.6-23.2-23.8c0-14,9.6-23.8,22.7-23.8C1449.7,218.3,1458.7,227.9,1458.8,241.9z
				 M1422.8,238.5h27.9c-1-8.1-6.2-13.3-13.6-13.3C1429.1,225.3,1424,230.7,1422.8,238.5z"/>
			<path class="st2" d="M1507.4,225.4v-29.7h7.9v69.2h-7.9v-6.1c-3.6,4.3-8.9,7.1-16.1,7.1c-12.8,0-22.8-10-22.8-23.8
				c0-13.8,10-23.8,22.8-23.8C1498.5,218.3,1503.8,221.1,1507.4,225.4z M1476.5,242.1c0,9.1,6.3,16.4,15.7,16.4
				c9.2,0,15.7-7.1,15.7-16.4c0-9.3-6.4-16.4-15.7-16.4C1482.7,225.7,1476.5,233,1476.5,242.1z"/>
			<path class="st2" d="M1568,225l-28.1,32.8h28.6v7.1h-39v-5.7l28.5-32.8h-27.6v-7.2h37.7V225z"/>
			<path class="st2" d="M1592.1,203.2c0,3.1-2.5,5.5-5.6,5.5s-5.5-2.4-5.5-5.5c0-3.2,2.4-5.6,5.5-5.6S1592.1,200,1592.1,203.2z
				 M1590.4,264.9h-7.8v-45.7h7.8V264.9z"/>
			<path class="st2" d="M1650.4,264.9h-7.9v-6.1c-3.6,4.3-8.9,7.1-16.1,7.1c-12.8,0-22.8-10-22.8-23.8c0-13.8,10-23.8,22.8-23.8
				c7.2,0,12.5,2.8,16.1,7.1v-6.2h7.9V264.9z M1611.6,242.1c0,9.1,6.3,16.4,15.7,16.4c9.2,0,15.7-7.1,15.7-16.4
				c0-9.3-6.4-16.4-15.7-16.4C1617.8,225.7,1611.6,233,1611.6,242.1z"/>
			<path class="st2" d="M1674.9,264.9h-7.8v-69.2h7.8V264.9z"/>
			<path class="st2" d="M1733.3,236.5v28.4h-7.9v-25.8c0-8.4-4.6-13.4-12.5-13.4c-7.4,0-13.5,5-13.5,13.6v25.6h-7.8v-45.7h7.8v6
				c3.7-5.1,9.7-6.9,14.9-6.9C1725.5,218.3,1733.3,225.6,1733.3,236.5z"/>
			<path class="st2" d="M1790.2,241.9c0,1-0.1,2.1-0.1,2.9h-35.9c1.1,9.5,7.7,14.1,15.5,14.1c5.3,0,10.2-2.1,14.1-5.4l4.2,5.4
				c-5.7,5.3-12,6.9-18.7,6.9c-13.6,0-23.2-9.6-23.2-23.8c0-14,9.6-23.8,22.7-23.8C1781.2,218.3,1790.1,227.9,1790.2,241.9z
				 M1754.3,238.5h27.9c-1-8.1-6.2-13.3-13.6-13.3C1760.5,225.3,1755.5,230.7,1754.3,238.5z"/>
			<path class="st2" d="M1105.6,341.8h-17.5v38.5h-7.9v-38.5h-10.1v-7.2h10.1v-7.8c0-9.6,4.4-16.7,15.2-16.7c5.2,0,9.3,1.4,12.5,3.4
				l-2.8,6.6c-2.4-1.4-5.8-2.6-9.2-2.6c-5.4,0-7.8,3.5-7.8,9.4v7.8h17.5V341.8z"/>
			<path class="st2" d="M1126.7,318.6c0,3.1-2.5,5.5-5.6,5.5s-5.5-2.4-5.5-5.5c0-3.2,2.4-5.6,5.5-5.6S1126.7,315.4,1126.7,318.6z
				 M1125,380.3h-7.8v-45.7h7.8V380.3z"/>
			<path class="st2" d="M1183.4,351.9v28.4h-7.9v-25.8c0-8.4-4.6-13.4-12.5-13.4c-7.4,0-13.5,5-13.5,13.6v25.6h-7.8v-45.7h7.8v6
				c3.7-5.1,9.7-6.9,14.9-6.9C1175.6,333.7,1183.4,341,1183.4,351.9z"/>
			<path class="st2" d="M1243,380.3h-7.9v-6.1c-3.6,4.3-8.9,7.1-16.1,7.1c-12.8,0-22.8-10-22.8-23.8c0-13.8,10-23.8,22.8-23.8
				c7.2,0,12.5,2.8,16.1,7.1v-6.2h7.9V380.3z M1204.2,357.5c0,9.1,6.3,16.4,15.7,16.4c9.2,0,15.7-7.1,15.7-16.4
				c0-9.3-6.4-16.4-15.7-16.4C1210.4,341.1,1204.2,348.4,1204.2,357.5z"/>
			<path class="st2" d="M1301.4,351.9v28.4h-7.9v-25.8c0-8.4-4.6-13.4-12.5-13.4c-7.4,0-13.5,5-13.5,13.6v25.6h-7.8v-45.7h7.8v6
				c3.7-5.1,9.7-6.9,14.9-6.9C1293.6,333.7,1301.4,341,1301.4,351.9z"/>
			<path class="st2" d="M1348.3,344.8c-2.9-2-8.7-4.2-14.7-4.2c-6.2,0-10.3,2.6-10.3,6.8c0,3.7,3.3,5.3,8.8,6l5.3,0.7
				c9.7,1.3,15.4,5.4,15.4,12.9c0,8.7-7.8,14.3-20.2,14.3c-5.6,0-13.2-1.3-19.2-5.9l3.7-5.9c3.4,2.6,8,4.9,15.6,4.9
				c7.5,0,12.1-2.5,12.1-7c0-3.4-3-5.5-9.2-6.2l-5.3-0.6c-10.2-1.2-15.2-5.9-15.2-12.8c0-8.7,7.3-14,18.4-14c7.2,0,13.8,1.9,18.2,5
				L1348.3,344.8z"/>
			<path class="st2" d="M1406,357.3c0,1-0.1,2.1-0.1,2.9H1370c1.1,9.5,7.7,14.1,15.5,14.1c5.3,0,10.2-2.1,14.1-5.4l4.2,5.4
				c-5.7,5.3-12,6.9-18.7,6.9c-13.6,0-23.2-9.6-23.2-23.8c0-14,9.6-23.8,22.7-23.8C1397,333.7,1405.9,343.3,1406,357.3z
				 M1370.1,353.9h27.9c-1-8.1-6.2-13.3-13.6-13.3C1376.3,340.6,1371.3,346.1,1370.1,353.9z"/>
		</g>
	</g>
	<g>
		<path class="st2" d="M66.5,93.5V122h-8.9V50.8h27c16.1,0,25.2,8,25.2,21.3s-9.1,21.3-25.2,21.3H66.5z M66.5,59.3v25.8h17.9
			c10.5,0,16.1-4.3,16.1-12.9s-5.5-12.9-16.1-12.9H66.5z"/>
		<path class="st2" d="M169.5,122h-8.3v-6.5c-3.8,4.5-9.5,7.5-17,7.5c-13.6,0-24.1-10.6-24.1-25.2s10.6-25.2,24.1-25.2
			c7.6,0,13.2,2.9,17,7.5v-6.5h8.3V122z M128.5,97.9c0,9.6,6.7,17.4,16.6,17.4c9.8,0,16.6-7.5,16.6-17.4c0-9.9-6.8-17.3-16.6-17.3
			C135.1,80.5,128.5,88.2,128.5,97.9z"/>
		<path class="st2" d="M218.3,74.3l-2,8.2c-2.3-1.2-5.5-1.9-8.3-1.9c-7.4,0-12.6,5.6-12.6,14.5V122h-8.3V73.7h8.2v6.4
			c3.4-4.7,8.4-7.4,14.1-7.4C212.9,72.7,215.7,73.2,218.3,74.3z"/>
		<path class="st2" d="M262.5,81.3h-20.3v23.5c0,7.3,3.9,10.4,9.1,10.4c3.6,0,7.1-1.4,9.9-3.3l3.9,6.3c-3.7,2.7-8.5,4.8-14.5,4.8
			c-10.5,0-16.7-5.7-16.7-18V81.3h-10.3v-7.6h10.3V58.6h8.3v15.1h20.3V81.3z"/>
		<path class="st2" d="M320,92v30h-8.3V94.7c0-8.9-4.9-14.1-13.3-14.1c-7.8,0-14.3,5.3-14.3,14.3V122h-8.3V73.7h8.2V80
			c4-5.4,10.2-7.3,15.8-7.3C311.7,72.7,320,80.4,320,92z"/>
		<path class="st2" d="M380.1,97.7c0,1.1-0.1,2.2-0.2,3.1h-38c1.2,10,8.1,14.9,16.4,14.9c5.6,0,10.8-2.2,14.9-5.7l4.4,5.7
			c-6,5.6-12.7,7.3-19.8,7.3c-14.3,0-24.5-10.1-24.5-25.2c0-14.8,10.1-25.2,24-25.2C370.5,72.7,380,82.9,380.1,97.7z M342.1,94.1
			h29.5c-1-8.5-6.6-14-14.4-14C348.7,80.1,343.4,85.9,342.1,94.1z"/>
		<path class="st2" d="M425.2,74.3l-2,8.2c-2.3-1.2-5.5-1.9-8.3-1.9c-7.4,0-12.6,5.6-12.6,14.5V122H394V73.7h8.2v6.4
			c3.4-4.7,8.4-7.4,14.1-7.4C419.8,72.7,422.6,73.2,425.2,74.3z"/>
	</g>
</g>
</svg>
